<svg xmlns="http://www.w3.org/2000/svg" viewBox="0 0 135 115"><path d="M106.2 83.1V36c0-.4-.2-.6-.6-.6H31.4c-.4 0-.6.2-.6.6v47c0 .4.2.6.6.6h74.2c.4.1.6-.2.6-.5zm-1.2-.7H32V36.6h73v45.8z"/><path d="M105.6 84.2H31.4c-.6 0-1.1-.5-1.1-1.1V36c0-.6.5-1.1 1.1-1.1h74.2c.6 0 1.1.5 1.1 1.1v47c0 .7-.5 1.2-1.1 1.2zM31.4 35.9c-.1 0-.1 0-.1.1v47c0 .1 0 .1.1.1h74.2c.1 0 .1 0 .1-.1V36c0-.1 0-.1-.1-.1H31.4zm74.1 47h-74V36.2h74v46.7zm-73-1h72V37.2h-72v44.7z"/><path d="M121.7 87.3h-10.5v-55c0-1.7-1.4-3.1-3.1-3.1H28.9c-1.7 0-3.1 1.4-3.1 3.1v54.9H15.3c-1 0-1.9.9-1.9 1.9v1.4c0 1.5 9.2 3.1 9.3 3.1h91.6c.1 0 9.3-1.6 9.3-3.1v-1.4c-.1-1-.9-1.8-1.9-1.8zM27 32.3c0-1 .9-1.9 1.9-1.9h79.2c1 0 1.9.9 1.9 1.9v54.9H79.6c-.1 0-.4.1-.5.2-.1.2-.1.4-.1.6v.1c0 .4-.2.6-.6.6H58.6c-.4 0-.6-.2-.6-.6V88c0-.1 0-.4-.1-.5s-.2-.2-.5-.2H27v-55zm95.3 57.9c-1.1.6-7.3 2.1-8 2.1H22.7c-.7 0-6.9-1.5-8-2.1v-1.1c0-.4.2-.6.6-.6h10.9c.1 0 .1.1.2.1s.2 0 .2-.1h30.1c.2.7 1 1.4 1.7 1.4h19.8c.9 0 1.5-.5 1.7-1.4h30.2c.1 0 .1.1.2.1s.2 0 .2-.1h11c.4 0 .6.2.6.6v1.1z"/><path d="M114.3 94.1H22.7c-.1 0-9.8-1.5-9.8-3.6v-1.4c0-1.3 1.1-2.4 2.4-2.4h10V32.3c0-2 1.6-3.6 3.6-3.6h79.2c2 0 3.6 1.6 3.6 3.6v54.4h10c1.3 0 2.4 1.1 2.4 2.4v1.4c-.1 2.1-9.7 3.6-9.8 3.6zm-99-6.3c-.7 0-1.4.6-1.4 1.4v1.4c.4.9 7.2 2.4 8.8 2.6h91.5c1.6-.2 8.4-1.7 8.8-2.6v-1.3c0-.7-.6-1.4-1.4-1.4h-11V32.3c0-1.5-1.1-2.6-2.6-2.6H28.9c-1.5 0-2.6 1.1-2.6 2.6v55.4h-11zm99 5H22.7c-.9 0-7.1-1.5-8.3-2.2l-.3-.1v-1.4c0-.6.5-1.1 1.1-1.1H57l.1.3c.2.6.8 1 1.3 1h19.8c.8 0 1.1-.5 1.3-1l.1-.4h42.1c.6 0 1.1.5 1.1 1.1v1.4l-.3.1c-1.1.8-7.4 2.3-8.2 2.3zm-99.1-2.9c1.5.6 6.9 1.9 7.5 1.9h91.6c.6 0 6-1.3 7.5-1.9v-.8c0-.1 0-.1-.1-.1h-10.8c-.2.1-.7.1-.9 0H80.3c-.4.9-1.1 1.4-2.1 1.4H58.5c-.8 0-1.7-.6-2.1-1.4H26.9c-.2.1-.7.1-.9 0H15.3c-.1 0-.1 0-.1.1v.8zm63.2-.7H58.6c-.6 0-1.1-.5-1.1-1.1v-.3h-31V32.3c0-1.3 1.1-2.4 2.4-2.4h79.2c1.3 0 2.4 1.1 2.4 2.4v55.4H79.6l-.1.1v.2c0 .8-.5 1.2-1.1 1.2zm-50.9-2.4h29.8c.5 0 .7.2.8.4.3.3.3.7.3.8v.1c0 .1 0 .1.1.1h19.8c.1 0 .1 0 .1-.1V88c0-.3 0-.6.3-.8.2-.2.6-.4.8-.4h29.8V32.3c0-.7-.6-1.4-1.4-1.4h-79c-.7 0-1.4.6-1.4 1.4v54.5z"/><path d="M57.9 93.9H34.2V40.2h66.4v30c0 .6.5 1.1 1.1 1.1s1.1-.5 1.1-1.1V26.4c0-.6-.5-1.1-1.1-1.1H33.1c-.6 0-1.1.5-1.1 1.1V95c0 .6.5 1.1 1.1 1.1h24.8c.6 0 1.1-.5 1.1-1.1s-.5-1.1-1.1-1.1zM34.2 27.5h66.4v10.4H34.2V27.5zm57.1 68.1c.5.4.5 1.1.1 1.6s-1.1.5-1.6.1l-.1-.1c-6.2-6.2-16.2-6.2-22.4 0-.5.4-1.2.4-1.6-.1-.4-.5-.4-1.2.1-1.6 7-7 18.4-7 25.5.1zm6.6-6.7c.4.4.4 1.2 0 1.6-.4.4-1.2.4-1.6 0-9.9-9.8-25.9-9.8-35.8 0-.4.4-1.2.4-1.6 0-.4-.4-.4-1.2 0-1.6 10.8-10.7 28.3-10.7 39 0zm6.8-5.1c-.4.4-1.2.4-1.6 0-13.6-13.6-35.7-13.6-49.3 0-.4.4-1.2.4-1.6 0-.4-.4-.4-1.2 0-1.6 14.5-14.4 38-14.4 52.5.1.4.3.4 1 0 1.5zM42.3 33.2c0 .9-.8 1.7-1.7 1.7s-1.7-.8-1.7-1.7c0-.9.8-1.7 1.7-1.7s1.7.7 1.7 1.7zm6.8 0c0 .9-.8 1.7-1.7 1.7s-1.7-.8-1.7-1.7c0-.9.8-1.7 1.7-1.7.9 0 1.7.7 1.7 1.7zm6.8 0c0 .9-.8 1.7-1.7 1.7s-1.7-.8-1.7-1.7c0-.9.8-1.7 1.7-1.7 1 0 1.7.7 1.7 1.7z"/><path d="M74 61.4c0 3.1-2.5 5.6-5.6 5.6-3.1 0-5.6-2.5-5.6-5.6 0-3.1 2.5-5.6 5.6-5.6 3.1 0 5.6 2.5 5.6 5.6zm-7.8 0c0 1.2 1 2.2 2.2 2.2 1.2 0 2.2-1 2.2-2.2 0-1.2-1-2.2-2.2-2.2s-2.2 1-2.2 2.2zm-8.7-10.7c-2.7 2.9-4.2 6.7-4.2 10.7 0 4 1.5 7.8 4.2 10.7L55 74.4c-3.3-3.5-5.1-8.2-5.1-13s1.8-9.5 5.1-13l2.5 2.3zm-9.2-9.2c-5.1 5.4-7.9 12.5-7.9 19.9s2.8 14.5 7.9 19.9l-2.5 2.3c-5.7-6-8.8-13.9-8.8-22.3s3.1-16.2 8.8-22.3l2.5 2.5z"/><path d="M39.1 32.3c-7.4 7.9-11.5 18.2-11.5 29.1s4.1 21.3 11.5 29.1l-2.5 2.3c-8-8.5-12.4-19.7-12.4-31.5s4.4-23 12.4-31.5l2.5 2.5zm40.4 39.8c2.7-2.9 4.2-6.7 4.2-10.7 0-4-1.5-7.8-4.2-10.7l2.5-2.3c3.3 3.5 5.1 8.2 5.1 13s-1.8 9.5-5.1 13l-2.5-2.3zm9.2 9.2c5.1-5.4 7.9-12.5 7.9-19.9s-2.8-14.5-7.9-19.9l2.5-2.3c5.7 6 8.8 13.9 8.8 22.3s-3.1 16.2-8.8 22.3l-2.5-2.5z"/><path d="M97.9 90.5c7.4-7.9 11.5-18.2 11.5-29.1s-4.1-21.3-11.5-29.1l2.5-2.3c8 8.5 12.4 19.7 12.4 31.5s-4.4 23-12.4 31.5l-2.5-2.5zM68.5 72.7c8.8 0 15.9-7.1 15.9-15.9s-7.1-15.9-15.9-15.9S52.6 48 52.6 56.8s7.1 15.9 15.9 15.9zm0-30.5c8 0 14.6 6.5 14.6 14.6s-6.5 14.6-14.6 14.6-14.6-6.5-14.6-14.6 6.5-14.6 14.6-14.6z"/><path d="M68.5 73.2c-9 0-16.4-7.4-16.4-16.4 0-9 7.4-16.4 16.4-16.4s16.4 7.4 16.4 16.4c0 9-7.4 16.4-16.4 16.4zm0-31.8c-8.5 0-15.4 6.9-15.4 15.4S60 72.2 68.5 72.2s15.4-6.9 15.4-15.4S77 41.4 68.5 41.4zm0 30.5c-8.3 0-15.1-6.8-15.1-15.1s6.8-15.1 15.1-15.1 15.1 6.8 15.1 15.1-6.8 15.1-15.1 15.1zm0-29.2c-7.8 0-14.1 6.3-14.1 14.1s6.3 14.1 14.1 14.1 14.1-6.3 14.1-14.1c-.1-7.8-6.4-14.1-14.1-14.1z"/><path d="M75.4 51.4l-1-.9-9.3 10.2-3.8-3.8-1 1 4.8 4.7z"/><path d="M65.1 63.4l-5.5-5.5 1.6-1.6L65 60l9.3-10.2 1.7 1.6-10.9 12zM61 57.9l4 4 9.6-10.5-.2-.2L65 61.4l-3.8-3.8-.2.3zm-4.1 20.4H80v1.3H56.9z"/><path d="M80.5 80.2H56.4v-2.3h24.1v2.3zm-23.1-1h22.1v-.3H57.4v.3zm-10.1 7.1h42.4v1.3H47.3z"/><path d="M90.2 88.1H46.8v-2.3h43.4v2.3zm-42.4-1h41.4v-.3H47.8v.3z"/><path d="M110.9 26.3H26.1v70.2h84.8V26.3zm-1.4 1.3v5.2H61.8l-2.7 2.7H27.4v-7.9h82.1zM27.4 95.2V36.8h32.3l2.7-2.7h47.2v61.1H27.4z"/><path d="M111.4 97H25.6V25.8h85.8V97zm-84.8-1h83.8V26.8H26.6V96zm83.4-.3H26.9V36.3h32.6l2.7-2.7H110v62.1zm-82.1-1H109V34.6H62.6l-2.7 2.7h-32v57.4zM59.4 36H26.9v-8.9H110v6.2H62L59.4 36zm-31.5-1h31l2.7-2.7H109v-4.2H27.9V35z"/><path d="M20.6 36.6h71.6v13.2h2.1v-27H18.5v65h35.2v-2.1H20.6V36.6zm2.5-11.8h69.1v9.8H20.6v-9.8h2.5zm11.7 4.9c0-.9.8-1.7 1.7-1.7.9 0 1.7.8 1.7 1.7 0 .9-.8 1.7-1.7 1.7-.9 0-1.7-.8-1.7-1.7zm-5.4 0c0-.9.8-1.7 1.7-1.7.9 0 1.7.8 1.7 1.7 0 .9-.8 1.7-1.7 1.7-.9 0-1.7-.8-1.7-1.7zm-5.3 0c0-.9.8-1.7 1.7-1.7.9 0 1.7.8 1.7 1.7 0 .9-.8 1.7-1.7 1.7-.9 0-1.7-.8-1.7-1.7zm88 55.7V66.7H99.2v-8.5h-19v8.5H68.6v18.6h-6.3V100h14.6V85.4h-6.3V68.8h9.6v8.5h8.5v8.1h-6.3V100H97V85.4h-6.3v-8.1h8.5v-8.5H110v16.6h-6.3V100h14.6V85.4h-6.2zM74.9 98H64.3V87.4h10.5V98zM95 98H84.4V87.4H95V98zm2.2-22.8h-15v-15h15v15zM116.4 98h-10.5V87.4h10.5V98z"/><path d="M101.9 96.7H35c-10.5 0-19-8.4-19-18.8 0-7.6 4.5-14.5 11.2-17.4-.3-1.2-.4-2.6-.4-3.9 0-10.2 8.3-18.6 18.6-18.6 4.8 0 9.2 1.8 12.7 5 3.3-10 12.7-16.9 23.7-16.9 13.7 0 24.9 11.2 24.9 24.9 0 2.8-.5 5.6-1.4 8.3 8.7 1.7 15.4 9.5 15.6 18.5 0 10.4-8.5 18.9-19 18.9zM45.4 40.9c-8.7 0-15.9 7.1-15.9 15.9 0 1.4.2 3 .6 4.3l.3 1.2-1.2.4C23 64.9 18.6 71.2 18.6 78c.1 8.8 7.4 16 16.4 16h66.9c9 0 16.3-7.3 16.3-16.3-.2-8.2-6.8-15.3-14.9-16.1l-1.8-.2.7-1.7C103.4 57 104 54 104 51c0-12.3-10-22.2-22.2-22.2-10.5 0-19.4 7.2-21.6 17.4l-.6 2.7-1.8-2.1c-3.2-3.8-7.6-5.9-12.4-5.9z"/><path d="M67 58h2.7v26.8H67z"/><path d="M68.4 86.7L55.5 73.8l1.9-1.9 11 11 10.9-11 1.9 1.9z"/><path d="M102.5 70.7h-17V31.5c0-.7-.6-1.3-1.3-1.3-.7 0-1.3.6-1.3 1.3v39.1H51.6V31.5c0-.7-.6-1.3-1.3-1.3-.7 0-1.3.6-1.3 1.3v39.1H34.6l-5.2 11.7v14.3c0 .7.6 1.3 1.3 1.3h75.7c.7 0 1.3-.6 1.3-1.3V82.4l-5.2-11.7zm-66.2 2.6H101l2.7 6.5H33.4l2.9-6.5zm68.8 22.1H32v-13h73v13z"/><path d="M71.2 90.2h23.5c.7 0 1.3-.6 1.3-1.3 0-.7-.6-1.3-1.3-1.3H71.2c-.7 0-1.3.6-1.3 1.3 0 .7.5 1.3 1.3 1.3zm-31.3 0h2.6c.7 0 1.3-.6 1.3-1.3 0-.7-.6-1.3-1.3-1.3h-2.6c-.7 0-1.3.6-1.3 1.3 0 .7.5 1.3 1.3 1.3zm6.5 0H49c.7 0 1.3-.6 1.3-1.3 0-.7-.6-1.3-1.3-1.3h-2.6c-.7 0-1.3.6-1.3 1.3 0 .7.6 1.3 1.3 1.3zm6.5 0h2.6c.7 0 1.3-.6 1.3-1.3 0-.7-.6-1.3-1.3-1.3h-2.6c-.7 0-1.3.6-1.3 1.3 0 .7.6 1.3 1.3 1.3zm15.6-52.6c0 4-1.6 7.6-4.4 10.5-.6.6-.6 1.4 0 2 .3.3.7.4 1 .4.4 0 .7-.1 1-.4 3.4-3.4 5.2-7.8 5.2-12.5s-1.8-9.2-5.2-12.5c-.6-.6-1.4-.6-2 0-.6.6-.6 1.4 0 2 2.8 2.9 4.4 6.6 4.4 10.5z"/><path d="M62.8 37.6c0 2.4-1 4.8-2.7 6.5-.6.6-.6 1.4 0 2 .3.3.7.4 1 .4.4 0 .7-.1 1-.4 2.3-2.3 3.5-5.2 3.5-8.5s-1.3-6.2-3.5-8.5c-.6-.6-1.4-.6-2 0-.6.6-.6 1.4 0 2 1.7 1.9 2.7 4.1 2.7 6.5z"/><path d="M56.2 42.2c.3.3.7.4 1 .4.4 0 .7-.1 1-.4 1.3-1.3 1.8-2.8 1.8-4.5s-.7-3.3-1.8-4.5c-.6-.6-1.4-.6-2 0-.6.6-.6 1.4 0 2 .7.7 1 1.6 1 2.5s-.4 1.8-1 2.5c-.6.6-.6 1.4 0 2zm-20.7 8.5c.4 0 .7-.1 1-.4.6-.6.6-1.4 0-2-2.8-2.8-4.4-6.5-4.4-10.5s1.6-7.6 4.4-10.5c.6-.6.6-1.4 0-2-.6-.6-1.4-.6-2 0-3.4 3.4-5.2 7.8-5.2 12.5s1.8 9.2 5.2 12.5c.1.2.6.4 1 .4z"/><path d="M38.5 46.1c.3.3.7.4 1 .4.4 0 .7-.1 1-.4.6-.6.6-1.4 0-2-1.7-1.7-2.7-4.1-2.7-6.5 0-2.4 1-4.8 2.7-6.5.6-.6.6-1.4 0-2-.6-.6-1.4-.6-2 0-2.3 2.3-3.5 5.2-3.5 8.5s1.2 6.3 3.5 8.5z"/><path d="M42.4 42.2c.3.3.7.4 1 .4.4 0 .7-.1 1-.4.6-.6.6-1.4 0-2-1.4-1.4-1.4-3.7 0-5 .6-.6.6-1.4 0-2-.6-.6-1.4-.6-2 0-2.4 2.5-2.4 6.6 0 9z"/><path d="M30.9 63v1l-4.4-4.7-1.9 1.6 7.1 7.8 8.1-6.7-1.6-1.9-5 4.2v-1.1c.8-12 7.7-22.6 18.3-28.3l-1.2-2.2C39 38.9 31.7 50.2 30.9 63zm47.4 29l6.1 2.4-.9.4c-9.8 4.4-20.7 4.2-30.3-.7-.1.4-.5 1.5-.7 2.4 10.1 5 21.7 5.2 32 .5.1 0 .1 0 .1-.1l.7-.3-2.2 6.1 2.3.8 3.5-10-9.8-3.9-.8 2.4zm10.6-58.2l-.1-.1-.7-.5 6.3-1.1-.4-2.4-10.4 1.6 1.2 10.5 2.4-.3-.7-6.5.8.7c8.7 6.6 13.9 16.7 13.9 27.7h2.4c.1-11.7-5.3-22.4-14.7-29.6zm-21-2.4c-3.3 0-5.9-2.7-5.9-5.9s2.7-5.9 5.9-5.9 5.9 2.7 5.9 5.9-2.6 5.9-5.9 5.9zm0-10.6c-2.5 0-4.6 2.1-4.6 4.6 0 2.5 2.1 4.6 4.6 4.6 2.5 0 4.6-2.1 4.6-4.6 0-2.5-2.1-4.6-4.6-4.6z"/><path d="M67.9 31.6c-3.4 0-6.2-2.8-6.2-6.2 0-3.4 2.8-6.2 6.2-6.2 3.4 0 6.2 2.8 6.2 6.2 0 3.4-2.8 6.2-6.2 6.2zm0-11.9c-3.2 0-5.7 2.6-5.7 5.7 0 3.2 2.6 5.7 5.7 5.7 3.2 0 5.7-2.6 5.7-5.7s-2.5-5.7-5.7-5.7zm0 10.5c-2.7 0-4.8-2.2-4.8-4.8 0-2.7 2.2-4.8 4.8-4.8 2.7 0 4.8 2.2 4.8 4.8 0 2.7-2.1 4.8-4.8 4.8zm0-9.2c-2.4 0-4.4 2-4.4 4.4 0 2.4 2 4.4 4.4 4.4 2.4 0 4.4-2 4.4-4.4 0-2.4-2-4.4-4.4-4.4z"/><path d="M77.6 43.6H58.2l-.1-.6c0-.3-.5-6.4 3-10.2 1.7-1.9 4.1-2.8 7-2.8 2.9 0 5.2.9 6.9 2.8 3.4 3.8 2.7 9.9 2.7 10.2l-.1.6zm-18.2-1.4h16.9c.1-1.6 0-5.9-2.4-8.5-1.4-1.5-3.4-2.3-5.9-2.3-2.5 0-4.5.8-6 2.4-2.4 2.6-2.6 6.9-2.6 8.4z"/><path d="M77.8 43.8H58l-.1-.8c0-.3-.5-6.5 3-10.3 1.7-1.9 4.2-2.9 7.1-2.9 3 0 5.4 1 7.1 2.9 3.4 3.8 2.8 10.1 2.7 10.4v.7zm-19.4-.4h19V43c0-.3.7-6.3-2.6-10-1.6-1.8-3.9-2.7-6.7-2.7-2.9 0-5.2.9-6.8 2.7-3.4 3.7-2.9 9.7-2.9 10v.4zm18.2-.9H59.2v-.2c0-1.7.2-6 2.7-8.7 1.5-1.6 3.6-2.4 6.1-2.4 2.6 0 4.6.8 6.1 2.4 2.4 2.7 2.5 7 2.5 8.7v.2zM59.7 42h16.5c.1-1.8-.1-5.7-2.3-8.2-1.3-1.5-3.3-2.3-5.7-2.3-2.5 0-4.4.8-5.8 2.3-2.4 2.6-2.7 6.4-2.7 8.2zM35.9 83.4c-3.3 0-5.9-2.7-5.9-5.9s2.7-5.9 5.9-5.9 5.9 2.7 5.9 5.9-2.6 5.9-5.9 5.9zm0-10.5c-2.5 0-4.6 2.1-4.6 4.6 0 2.5 2.1 4.6 4.6 4.6 2.5 0 4.6-2.1 4.6-4.6 0-2.6-2.1-4.6-4.6-4.6z"/><path d="M35.9 83.6c-3.4 0-6.2-2.8-6.2-6.2 0-3.4 2.8-6.2 6.2-6.2 3.4 0 6.2 2.8 6.2 6.2 0 3.5-2.8 6.2-6.2 6.2zm0-11.9c-3.2 0-5.7 2.6-5.7 5.7 0 3.2 2.6 5.7 5.7 5.7 3.2 0 5.7-2.6 5.7-5.7s-2.6-5.7-5.7-5.7zm0 10.6c-2.7 0-4.8-2.2-4.8-4.8 0-2.7 2.2-4.8 4.8-4.8 2.7 0 4.8 2.2 4.8 4.8 0 2.6-2.1 4.8-4.8 4.8zm0-9.2c-2.4 0-4.4 2-4.4 4.4 0 2.4 2 4.4 4.4 4.4 2.4 0 4.4-2 4.4-4.4 0-2.5-2-4.4-4.4-4.4z"/><path d="M45.6 95.6H26.2l-.1-.6c0-.3-.5-6.4 3-10.2 1.7-1.9 4.1-2.8 7-2.8 2.9 0 5.2.9 6.9 2.8 3.4 3.8 2.7 9.9 2.7 10.2l-.1.6zm-18.2-1.3h16.9c.1-1.6 0-5.9-2.4-8.5-1.4-1.5-3.4-2.3-5.9-2.3-2.5 0-4.5.8-6 2.4-2.4 2.5-2.6 6.8-2.6 8.4z"/><path d="M45.8 95.8H26l-.1-.8c0-.3-.5-6.5 3-10.3 1.7-1.9 4.2-2.9 7.1-2.9 3 0 5.4 1 7.1 2.9 3.4 3.8 2.8 10.1 2.7 10.4v.7zm-19.4-.4h19V95c0-.3.7-6.3-2.6-10-1.6-1.8-3.9-2.7-6.7-2.7-2.9 0-5.2.9-6.8 2.7-3.4 3.7-2.9 9.7-2.9 10v.4zm18.2-.9H27.2v-.2c0-1.7.2-6 2.7-8.7 1.5-1.6 3.6-2.4 6.1-2.4 2.6 0 4.6.8 6.1 2.4 2.4 2.7 2.5 7 2.5 8.7v.2zm-17-.4h16.5c.1-1.8-.1-5.7-2.3-8.2-1.3-1.5-3.3-2.3-5.7-2.3-2.5 0-4.4.8-5.8 2.3-2.4 2.5-2.6 6.4-2.7 8.2zm74.7-10.7c-3.3 0-5.9-2.7-5.9-5.9s2.7-5.9 5.9-5.9c3.3 0 5.9 2.7 5.9 5.9s-2.6 5.9-5.9 5.9zm0-10.5c-2.5 0-4.6 2.1-4.6 4.6 0 2.5 2.1 4.6 4.6 4.6 2.5 0 4.6-2.1 4.6-4.6 0-2.6-2-4.6-4.6-4.6z"/><path d="M102.3 83.6c-3.4 0-6.2-2.8-6.2-6.2 0-3.4 2.8-6.2 6.2-6.2 3.4 0 6.2 2.8 6.2 6.2 0 3.5-2.8 6.2-6.2 6.2zm0-11.9c-3.2 0-5.7 2.6-5.7 5.7 0 3.2 2.6 5.7 5.7 5.7 3.2 0 5.7-2.6 5.7-5.7s-2.5-5.7-5.7-5.7zm0 10.6c-2.7 0-4.8-2.2-4.8-4.8 0-2.7 2.2-4.8 4.8-4.8 2.7 0 4.8 2.2 4.8 4.8 0 2.6-2.1 4.8-4.8 4.8zm0-9.2c-2.4 0-4.4 2-4.4 4.4 0 2.4 2 4.4 4.4 4.4 2.4 0 4.4-2 4.4-4.4 0-2.5-2-4.4-4.4-4.4z"/><path d="M112 95.6H92.6l-.1-.6c0-.3-.5-6.4 3-10.2 1.7-1.9 4.1-2.8 7-2.8 2.9 0 5.2.9 6.9 2.8 3.4 3.8 2.7 9.9 2.7 10.2l-.1.6zm-18.2-1.3h16.9c.1-1.6 0-5.9-2.4-8.5-1.4-1.5-3.4-2.3-5.9-2.3-2.5 0-4.5.8-6 2.4-2.4 2.5-2.6 6.8-2.6 8.4z"/><path d="M112.2 95.8H92.4l-.1-.8c0-.3-.5-6.5 3-10.3 1.7-1.9 4.2-2.9 7.1-2.9s5.4 1 7.1 2.9c3.4 3.8 2.8 10.1 2.7 10.4v.7zm-19.4-.4h19V95c0-.3.7-6.3-2.6-10-1.6-1.8-3.9-2.7-6.7-2.7-2.9 0-5.2.9-6.8 2.7-3.4 3.7-2.9 9.7-2.9 10v.4zm18.2-.9H93.6v-.2c0-1.7.2-6 2.7-8.7 1.5-1.6 3.6-2.4 6.1-2.4 2.6 0 4.6.8 6.1 2.4 2.4 2.7 2.5 7 2.5 8.7v.2zm-16.9-.4h16.5c.1-1.8-.1-5.7-2.3-8.2-1.3-1.5-3.3-2.3-5.7-2.3-2.5 0-4.4.8-5.8 2.3-2.4 2.5-2.7 6.4-2.7 8.2zM67.9 50.7c-5.5 0-9.9 4.5-9.9 10 0 3.3.9 4.9 1.8 6.3.9 1.4 1.7 2.7 1.7 5.5v.2l1.5 8c.1.7.8 1.1 1.5 1.1h.1v.2c0 .8.6 1.6 1.4 1.6h3.6c.8 0 1.4-.8 1.4-1.6v-.2h.1c.7 0 1.4-.4 1.5-1.1l1.5-8v-.2c0-2.8.8-4 1.7-5.5.9-1.4 1.8-3.1 1.8-6.3.2-5.5-4.3-10-9.7-10zM70.3 82c0 .5-.3.8-.6.8h-3.6c-.3 0-.6-.3-.6-.8v-.2h4.7v.2zm1.6-1.5c0 .2-.4.4-.7.4h-6.6c-.4 0-.7-.3-.7-.4L62.4 73h10.9l-1.4 7.5zm3.4-13.9c-.8 1.4-1.7 2.8-1.8 5.6h-5.1v-8c.1-.1 2-.5 2.1-2.3.1-1.4-1.1-2.5-2.6-2.5-1.4 0-2.7 1.1-2.6 2.5.2 1.8 1.7 2.3 2 2.5.2-.2.6-.8.5-.8-1.2-.2-1.7-1.2-1.7-1.7 0-1 .8-1.7 1.8-1.7s1.8.8 1.8 1.7c0 1.3-1.8 1.7-1.9 1.7-.1.1-.2.2-.2.4v8.2h-5.3c-.1-2.7-.9-4.2-1.8-5.6-.9-1.4-1.7-2.8-1.7-5.9 0-5 4.1-9.1 9.1-9.1s9.1 4.1 9.1 9.1c-.1 3.1-.9 4.5-1.7 5.9z"/><path d="M69.7 83.9h-3.6c-.9 0-1.7-.8-1.7-1.8-.8-.1-1.5-.6-1.6-1.4l-1.6-8.2c0-2.6-.7-3.8-1.6-5.1l-.1-.2c-.8-1.3-1.8-3-1.8-6.5 0-5.7 4.6-10.3 10.2-10.3 2.7 0 5.3 1.1 7.2 3 1.9 2 3 4.5 3 7.3 0 3.4-1 5.1-1.9 6.5l-.1.2c-.8 1.4-1.5 2.5-1.5 5.1v.3l-1.5 8c-.1.7-.8 1.3-1.6 1.4-.1.9-.9 1.7-1.8 1.7zm-7.8-11.3l1.6 8c.1.5.7.8 1.2.8h.5v.6c0 .6.4 1.2 1 1.2h3.6c.6 0 1-.6 1-1.2v-.6h.5c.5 0 1.1-.3 1.2-.8l1.6-8.1c0-2.8.8-4.1 1.6-5.5l.1-.2c.8-1.4 1.8-2.9 1.8-6.1 0-2.6-1-5-2.8-6.8s-4.2-2.8-6.7-2.8c-5.2 0-9.5 4.3-9.5 9.6 0 3.3 1 4.9 1.7 6.1l.1.2c.7 1.4 1.5 2.7 1.5 5.6zm7.8 10.5h-3.6c-.4 0-.9-.4-.9-1.1v-.6h5.4v.6c0 .7-.5 1.1-.9 1.1zm-3.8-1c0 .2.1.3.2.3h3.6s.1-.1.2-.3h-4zm5.3-.8h-6.6c-.5 0-1-.4-1.1-.7l-1.5-8h11.8l-1.5 8c-.1.3-.6.7-1.1.7zm-8.3-8l1.4 7.1s.2.1.4.1h6.6c.2 0 .3-.1.4-.2l1.4-7.1H62.9zm10.9-.8H68v-8.4s0 .1-.1.1v8.3h-6v-.3c-.1-2.7-1-4.1-1.7-5.4-.9-1.4-1.7-2.9-1.7-6.1 0-2.5 1-4.9 2.8-6.7 1.8-1.8 4.1-2.8 6.7-2.8 5.2 0 9.4 4.3 9.4 9.5 0 3.2-.9 4.7-1.7 6.1-.8 1.3-1.6 2.7-1.7 5.4l-.2.3zm-5.1-.7h4.4c.2-2.7 1.1-4.2 1.8-5.4l.3.2-.2-.2c.8-1.4 1.6-2.7 1.6-5.7 0-4.8-3.9-8.8-8.7-8.8-2.3 0-4.5.9-6.1 2.6-1.6 1.7-2.5 3.9-2.5 6.2 0 3 .8 4.3 1.6 5.7.7 1.2 1.7 2.7 1.8 5.4h4.6v-7.1l-.1-.1c-.1 0-.1-.1-.2-.1-.6-.3-1.8-.9-2-2.7-.1-.7.2-1.4.7-1.9.6-.6 1.4-1 2.3-1 .8 0 1.7.3 2.2.9.5.5.8 1.2.7 2-.1 1.2-.8 2-2.1 2.5v7.5zm-.8-12.1c-.7 0-1.3.3-1.8.8-.3.3-.5.7-.5 1.4.1 1.3 1 1.8 1.6 2.1v-.1c-1-.4-1.5-1.4-1.5-1.9 0-1.2.9-2.1 2.1-2.1.6 0 1.1.2 1.6.7.4.4.6.9.6 1.4 0 .6-.4 1.2-1 1.6.5-.3 1-.8 1.1-1.6 0-.5-.2-1.1-.5-1.5-.4-.6-1-.8-1.7-.8zm-.1 3.5c.4 0 1.5-.4 1.5-1.3 0-.3-.1-.6-.4-.9-.3-.3-.7-.4-1-.4-.8 0-1.4.6-1.4 1.4 0 .1.4 1 1.3 1.2z"/></svg>