<svg version="1.1" id="Camada_1" xmlns="http://www.w3.org/2000/svg" xmlns:xlink="http://www.w3.org/1999/xlink" x="0px" y="0px" viewBox="0 0 136 122.7" style="enable-background:new 0 0 136 122.7;" xml:space="preserve">
<g>
	<path class="fill-none stroke-color-white stroke-width-2" d="M118.6,78V21.7c0-1.5-1.2-2.6-2.6-2.6H24.8c-1.5,0-2.6,1.2-2.6,2.6V78H118.6z"/>
	<path class="fill-none stroke-color-white stroke-width-2" d="M29.3,89.4h86.9c1.6,0,2.5-1.6,2.5-3.2V78H22.1v8.1c0,1.6,1.6,3.3,3.2,3.3H29.3"/>
	<path class="fill-none stroke-color-white stroke-width-2" d="M55.2,102"/>
	<path class="fill-none stroke-color-white stroke-width-2" d="M85.5,102c-0.9-0.4-1.9-0.8-2.5-1.2c-1.1-0.6-1.3-0.7-1.7-2.7c-0.4-2.2-0.1-6.6-0.2-8.6l-21.4-0.1"/>
	<line class="fill-none stroke-color-white stroke-width-2" x1="60.4" y1="102" x2="88.2" y2="102"/>
</g>
<g>
	<path class="fill-none stroke-color-white stroke-width-2" d="M82.7,102"/>
	<path class="fill-none stroke-color-white stroke-width-2" d="M52.4,102c0.9-0.4,1.9-0.8,2.5-1.2c1.1-0.6,1.3-0.7,1.7-2.7c0.4-2.2,0.1-6.6,0.2-8.6l21.4-0.1"/>
	<line class="fill-none stroke-color-white stroke-width-2" x1="77.5" y1="102" x2="49.7" y2="102"/>
</g>
<g>
	<line class="fill-none stroke-color-white stroke-width-2" x1="80.7" y1="36.7" x2="80.7" y2="31.1"/>
	<line class="fill-none stroke-color-white stroke-width-2" x1="75.4" y1="40.1" x2="70.5" y2="37.3"/>
	<line class="fill-none stroke-color-white stroke-width-2" x1="75.7" y1="46.4" x2="70.9" y2="49.2"/>
	<line class="fill-none stroke-color-white stroke-width-2" x1="81.3" y1="49.3" x2="81.3" y2="54.9"/>
	<line class="fill-none stroke-color-white stroke-width-2" x1="86.3" y1="39.6" x2="91.1" y2="36.8"/>
	<g>
		<line class="fill-none stroke-color-white stroke-width-2" x1="98.4" y1="58.5" x2="106.4" y2="66.4"/>
		<polygon class="fill-none stroke-color-white stroke-width-2" points="83.9,43.9 107.3,53.8 97.9,57.9 93.8,67.3 			"/>
	</g>
</g>
</svg>
