<svg x="0px" y="0px" viewBox="0 0 136 122.7" style="enable-background:new 0 0 136 122.7;">
<g>
	<path class="fill-none stroke-color-white stroke-width-2 stroke-linejoin-round" d="M92.9,105.7c0,1.7-1.4,3.1-3.1,3.1H47c-1.7,0-3.1-1.4-3.1-3.1V15.3c0-1.7,1.4-3.1,3.1-3.1h42.9 c1.7,0,3.1,1.4,3.1,3.1L92.9,105.7L92.9,105.7z"/>
	<path class="fill-white stroke-color-white stroke-width-075 stroke-miterlimit-10" d="M87.9,26.2v67.7H48.8V26.2H87.9 M89,25.3H47.9V95H89V25.3L89,25.3z"/>
	<line class="fill-none stroke-color-white stroke-width-2 stroke-linejoin-round" x1="60.2" y1="19.1" x2="76.6" y2="19.1"/>
	<line class="fill-none stroke-color-white stroke-width-2 stroke-linejoin-round" x1="66.9" y1="100.8" x2="69.9" y2="100.8"/>
</g>
<g>
	<path class="fill-none stroke-color-white stroke-width-2" d="M68.4,36.1c-7.9,0-14.3,6.4-14.3,14.3s14.3,20.1,14.3,20.1s14.3-12.2,14.3-20.1 C82.7,42.5,76.3,36.1,68.4,36.1z M68.4,57.5c-3.9,0-7.1-3.2-7.1-7.1s3.2-7.1,7.1-7.1s7.1,3.2,7.1,7.1S72.3,57.5,68.4,57.5z"/>
	<path class="fill-none stroke-color-white stroke-width-2 stroke-miterlimit-10" d="M68.4,57.5c-3.9,0-7.1-3.2-7.1-7.1s3.2-7.1,7.1-7.1s7.1,3.2,7.1,7.1S72.3,57.5,68.4,57.5z"/>
</g>
</svg>
