<svg viewBox="0 0 136 122.7" style="enable-background:new 0 0 136 122.7;">
<g>
	<path class="fill-none" d="M75.4,78.2C59.7,78.2,47,65.5,47,49.8c0-15.7,12.7-28.4,28.4-28.4"/>
	<g>
		<path class="fill-none stroke-color-white stroke-width-2 stroke-linejoin-round stroke-linecap-round" d="M75.4,78.5c-15.8,0-28.7-12.8-28.7-28.7s12.8-28.7,28.7-28.7s28.7,12.8,28.7,28.7c0,0.7,0,1.3-0.1,1.9"/>
		<path class="fill-none stroke-color-white stroke-width-2 stroke-linejoin-round stroke-linecap-round" d="M86.2,71.6c-1.9,2.3-5.9,7-10.8,6.9C66.7,78.3,58.8,63,58.8,49.8c0.1-13.2,8.1-28.7,16.6-28.7 c8.8,0.1,15.7,16.7,16.6,28.7C92.3,53.6,92.9,63.6,86.2,71.6z"/>
		<path class="fill-none stroke-color-white stroke-width-2 stroke-linejoin-round stroke-linecap-round" d="M104,51.5c0-0.4,0.1-1,0.1-1.7c-0.3-13.3-9.4-27.6-28.7-28.7v57.4c2,0,5-0.2,8.4-1.3 c0.4-0.1,2.8-0.9,5.3-2.2C96.4,71,103.4,62.1,104,51.5z"/>
		<path class="fill-none stroke-color-white stroke-width-2 stroke-linejoin-round stroke-linecap-round" d="M102.2,39.7H48.6c-1.2,3.1-1.9,6.5-1.9,10.1c0,3.6,0.7,7,1.9,10.1h53.6"/>
	</g>
</g>
<g>
	<path class="fill-none stroke-color-white stroke-width-2" d="M102.2,40.3h5.7c1.6,0,2.8,1.3,2.8,2.8v52.3"/>
	<path class="fill-none stroke-color-white stroke-width-2" d="M28.2,95.4V43.1c0-1.6,1.3-2.8,2.8-2.8h17.6"/>
	<polyline class="fill-none stroke-color-white stroke-width-2" points="104.1,46.6 104.1,88.6 34.8,88.6 34.8,46.6 46.6,46.6"/>
	<path class="fill-none stroke-color-white stroke-width-2" d="M123,98.2v-3.1H78.5h-0.6c-0.4,1.5-1.8,1.4-3.4,1.4H64.4c-1.6,0-2.9,0-3.4-1.4h-0.6H15.9v3.1
		c0,0,3.7,2.8,6.4,2.8h34.1h26.1h34.1C119.3,101,123,98.2,123,98.2z"/>
</g>
</svg>
