<?xml version="1.0" encoding="utf-8"?>
<svg version="1.1" id="svg-infra" xmlns="http://www.w3.org/2000/svg" xmlns:xlink="http://www.w3.org/1999/xlink" x="0px" y="0px" viewBox="0 0 135 115" style="enable-background:new 0 0 135 115;" xml:space="preserve">
	<g>
		<path d="M106.2,83.1V36c0-0.4-0.2-0.6-0.6-0.6H31.4c-0.4,0-0.6,0.2-0.6,0.6v47c0,0.4,0.2,0.6,0.6,0.6h74.2
	C106,83.7,106.2,83.4,106.2,83.1z M105,82.4H32V36.6h73V82.4z" />
		<path d="M105.6,84.2H31.4c-0.6,0-1.1-0.5-1.1-1.1V36c0-0.6,0.5-1.1,1.1-1.1h74.2c0.6,0,1.1,0.5,1.1,1.1v47
	C106.7,83.7,106.2,84.2,105.6,84.2z M31.4,35.9c-0.1,0-0.1,0-0.1,0.1v47c0,0.1,0,0.1,0.1,0.1h74.2c0.1,0,0.1,0,0.1-0.1V36
	c0-0.1,0-0.1-0.1-0.1H31.4z M105.5,82.9h-74V36.2h74V82.9z M32.5,81.9h72V37.2h-72V81.9z" />
	</g>
  <g>
    <path d="M121.7,87.3h-10.5V32.3c0-1.7-1.4-3.1-3.1-3.1H28.9c-1.7,0-3.1,1.4-3.1,3.1v54.9H15.3c-1,0-1.9,0.9-1.9,1.9v1.4
		c0,1.5,9.2,3.1,9.3,3.1h91.6c0.1,0,9.3-1.6,9.3-3.1v-1.4C123.5,88.1,122.7,87.3,121.7,87.3z M27,32.3c0-1,0.9-1.9,1.9-1.9h79.2
		c1,0,1.9,0.9,1.9,1.9v54.9H79.6c-0.1,0-0.4,0.1-0.5,0.2C79,87.6,79,87.8,79,88c0,0,0,0,0,0.1c0,0.4-0.2,0.6-0.6,0.6H58.6
		c-0.4,0-0.6-0.2-0.6-0.6V88c0-0.1,0-0.4-0.1-0.5s-0.2-0.2-0.5-0.2H27V32.3z M122.3,90.2c-1.1,0.6-7.3,2.1-8,2.1H22.7
		c-0.7,0-6.9-1.5-8-2.1v-1.1c0-0.4,0.2-0.6,0.6-0.6h10.9c0.1,0,0.1,0.1,0.2,0.1c0.1,0,0.2,0,0.2-0.1h30.1c0.2,0.7,1,1.4,1.7,1.4
		h19.8c0.9,0,1.5-0.5,1.7-1.4h30.2c0.1,0,0.1,0.1,0.2,0.1c0.1,0,0.2,0,0.2-0.1h11c0.4,0,0.6,0.2,0.6,0.6V90.2z" />
    <path d="M114.3,94.1H22.7c-0.1,0-9.8-1.5-9.8-3.6v-1.4c0-1.3,1.1-2.4,2.4-2.4h10V32.3c0-2,1.6-3.6,3.6-3.6h79.2
		c2,0,3.6,1.6,3.6,3.6v54.4h10c1.3,0,2.4,1.1,2.4,2.4v1.4C124,92.6,114.4,94.1,114.3,94.1z M15.3,87.8c-0.7,0-1.4,0.6-1.4,1.4v1.4
		c0.4,0.9,7.2,2.4,8.8,2.6l91.5,0c1.6-0.2,8.4-1.7,8.8-2.6l0-1.3c0-0.7-0.6-1.4-1.4-1.4h-11V32.3c0-1.5-1.1-2.6-2.6-2.6H28.9
		c-1.5,0-2.6,1.1-2.6,2.6v55.4H15.3z M114.3,92.8H22.7c-0.9,0-7.1-1.5-8.3-2.2l-0.3-0.1v-1.4c0-0.6,0.5-1.1,1.1-1.1h41.8l0.1,0.3
		c0.2,0.6,0.8,1,1.3,1h19.8c0.8,0,1.1-0.5,1.3-1l0.1-0.4h42.1c0.6,0,1.1,0.5,1.1,1.1v1.4l-0.3,0.1C121.4,91.3,115.1,92.8,114.3,92.8
		z M15.2,89.9c1.5,0.6,6.9,1.9,7.5,1.9h91.6c0.6,0,6-1.3,7.5-1.9v-0.8c0-0.1,0-0.1-0.1-0.1h-10.8c-0.2,0.1-0.7,0.1-0.9,0H80.3
		c-0.4,0.9-1.1,1.4-2.1,1.4H58.5c-0.8,0-1.7-0.6-2.1-1.4H26.9c-0.2,0.1-0.7,0.1-0.9,0H15.3c-0.1,0-0.1,0-0.1,0.1V89.9z M78.4,89.2
		H58.6c-0.6,0-1.1-0.5-1.1-1.1V88c0,0,0-0.2,0-0.2c-0.1,0-0.1,0-0.1,0H26.5V32.3c0-1.3,1.1-2.4,2.4-2.4h79.2c1.3,0,2.4,1.1,2.4,2.4
		v55.4H79.6c0,0-0.1,0.1-0.1,0.1c0,0,0,0.1,0,0.1v0.1C79.5,88.8,79,89.2,78.4,89.2z M27.5,86.8h29.8c0.5,0,0.7,0.2,0.8,0.4
		c0.3,0.3,0.3,0.7,0.3,0.8v0.1c0,0.1,0,0.1,0.1,0.1h19.8c0.1,0,0.1,0,0.1-0.1V88c0-0.3,0-0.6,0.3-0.8c0.2-0.2,0.6-0.4,0.8-0.4h29.8
		V32.3c0-0.7-0.6-1.4-1.4-1.4H28.9c-0.7,0-1.4,0.6-1.4,1.4V86.8z" />
  </g>
  <g>
    <path d="M57.9,93.9H34.2V40.2h66.4v30c0,0.6,0.5,1.1,1.1,1.1s1.1-0.5,1.1-1.1V26.4c0-0.6-0.5-1.1-1.1-1.1H33.1
		c-0.6,0-1.1,0.5-1.1,1.1V95c0,0.6,0.5,1.1,1.1,1.1h24.8c0.6,0,1.1-0.5,1.1-1.1S58.5,93.9,57.9,93.9z M34.2,27.5h66.4v10.4H34.2
		V27.5z M91.3,95.6c0.5,0.4,0.5,1.1,0.1,1.6c-0.4,0.5-1.1,0.5-1.6,0.1c0,0-0.1-0.1-0.1-0.1c-6.2-6.2-16.2-6.2-22.4,0
		c-0.5,0.4-1.2,0.4-1.6-0.1c-0.4-0.5-0.4-1.2,0.1-1.6l0,0C72.8,88.5,84.2,88.5,91.3,95.6z M97.9,88.9c0.4,0.4,0.4,1.2,0,1.6
		c-0.4,0.4-1.2,0.4-1.6,0c-9.9-9.8-25.9-9.8-35.8,0c-0.4,0.4-1.2,0.4-1.6,0c-0.4-0.4-0.4-1.2,0-1.6C69.7,78.2,87.2,78.2,97.9,88.9
		L97.9,88.9z M104.7,83.8c-0.4,0.4-1.2,0.4-1.6,0c-13.6-13.6-35.7-13.6-49.3,0c-0.4,0.4-1.2,0.4-1.6,0c-0.4-0.4-0.4-1.2,0-1.6
		c14.5-14.4,38-14.4,52.5,0.1C105.1,82.6,105.1,83.3,104.7,83.8L104.7,83.8z M42.3,33.2c0,0.9-0.8,1.7-1.7,1.7s-1.7-0.8-1.7-1.7
		c0-0.9,0.8-1.7,1.7-1.7S42.3,32.2,42.3,33.2z M49.1,33.2c0,0.9-0.8,1.7-1.7,1.7s-1.7-0.8-1.7-1.7c0-0.9,0.8-1.7,1.7-1.7
		C48.3,31.5,49.1,32.2,49.1,33.2z M55.9,33.2c0,0.9-0.8,1.7-1.7,1.7s-1.7-0.8-1.7-1.7c0-0.9,0.8-1.7,1.7-1.7
		C55.2,31.5,55.9,32.2,55.9,33.2z" />
  </g>
  <g>
    <g>
      <path d="M74,61.4c0,3.1-2.5,5.6-5.6,5.6c-3.1,0-5.6-2.5-5.6-5.6c0-3.1,2.5-5.6,5.6-5.6C71.5,55.8,74,58.3,74,61.4z M66.2,61.4
			c0,1.2,1,2.2,2.2,2.2c1.2,0,2.2-1,2.2-2.2c0-1.2-1-2.2-2.2-2.2S66.2,60.2,66.2,61.4z" />
    </g>
    <g>
      <path d="M57.5,50.7c-2.7,2.9-4.2,6.7-4.2,10.7c0,4,1.5,7.8,4.2,10.7L55,74.4c-3.3-3.5-5.1-8.2-5.1-13s1.8-9.5,5.1-13L57.5,50.7z" />
    </g>
    <g>
      <path d="M48.3,41.5c-5.1,5.4-7.9,12.5-7.9,19.9s2.8,14.5,7.9,19.9l-2.5,2.3c-5.7-6-8.8-13.9-8.8-22.3s3.1-16.2,8.8-22.3L48.3,41.5
			z" />
    </g>
    <g>
      <path d="M39.1,32.3c-7.4,7.9-11.5,18.2-11.5,29.1s4.1,21.3,11.5,29.1l-2.5,2.3c-8-8.5-12.4-19.7-12.4-31.5s4.4-23,12.4-31.5
			L39.1,32.3z" />
    </g>
    <g>
      <path d="M79.5,72.1c2.7-2.9,4.2-6.7,4.2-10.7c0-4-1.5-7.8-4.2-10.7l2.5-2.3c3.3,3.5,5.1,8.2,5.1,13s-1.8,9.5-5.1,13L79.5,72.1z" />
    </g>
    <g>
      <path d="M88.7,81.3c5.1-5.4,7.9-12.5,7.9-19.9s-2.8-14.5-7.9-19.9l2.5-2.3c5.7,6,8.8,13.9,8.8,22.3s-3.1,16.2-8.8,22.3L88.7,81.3z
			" />
    </g>
    <g>
      <path d="M97.9,90.5c7.4-7.9,11.5-18.2,11.5-29.1s-4.1-21.3-11.5-29.1l2.5-2.3c8,8.5,12.4,19.7,12.4,31.5s-4.4,23-12.4,31.5
			L97.9,90.5z" />
    </g>
  </g>
  <g>
    <g>
      <g>
        <path d="M68.5,72.7c8.8,0,15.9-7.1,15.9-15.9s-7.1-15.9-15.9-15.9S52.6,48,52.6,56.8S59.7,72.7,68.5,72.7z M68.5,42.2
				c8,0,14.6,6.5,14.6,14.6s-6.5,14.6-14.6,14.6s-14.6-6.5-14.6-14.6S60.4,42.2,68.5,42.2z" />
        <path d="M68.5,73.2c-9,0-16.4-7.4-16.4-16.4c0-9,7.4-16.4,16.4-16.4s16.4,7.4,16.4,16.4C84.9,65.8,77.5,73.2,68.5,73.2z
				 M68.5,41.4c-8.5,0-15.4,6.9-15.4,15.4S60,72.2,68.5,72.2s15.4-6.9,15.4-15.4S77,41.4,68.5,41.4z M68.5,71.9
				c-8.3,0-15.1-6.8-15.1-15.1s6.8-15.1,15.1-15.1s15.1,6.8,15.1,15.1S76.8,71.9,68.5,71.9z M68.5,42.7c-7.8,0-14.1,6.3-14.1,14.1
				c0,7.8,6.3,14.1,14.1,14.1c7.8,0,14.1-6.3,14.1-14.1C82.5,49,76.2,42.7,68.5,42.7z" />
      </g>
      <g>
        <polygon points="75.4,51.4 74.4,50.5 65.1,60.7 61.3,56.9 60.3,57.9 65.1,62.6 			" />
        <path d="M65.1,63.4l-5.5-5.5l1.6-1.6L65,60l9.3-10.2l1.7,1.6L65.1,63.4z M61,57.9l4,4l9.6-10.5l-0.2-0.2l-9.4,10.2l-3.8-3.8
				L61,57.9z" />
      </g>
      <g>
        <rect x="56.9" y="78.3" width="23.1" height="1.3" />
        <path d="M80.5,80.2H56.4v-2.3h24.1V80.2z M57.4,79.2h22.1v-0.3H57.4V79.2z" />
      </g>
      <g>
        <rect x="47.3" y="86.3" width="42.4" height="1.3" />
        <path d="M90.2,88.1H46.8v-2.3h43.4V88.1z M47.8,87.1h41.4v-0.3H47.8V87.1z" />
      </g>
      <g>
        <path d="M110.9,26.3H26.1v70.2h84.8V26.3z M109.5,27.6v5.2H61.8l-2.7,2.7H27.4v-7.9H109.5z M27.4,95.2V36.8h32.3l2.7-2.7h47.2
				v61.1H27.4z" />
        <path d="M111.4,97H25.6V25.8h85.8V97z M26.6,96h83.8V26.8H26.6V96z M110,95.7H26.9V36.3h32.6l2.7-2.7H110V95.7z M27.9,94.7H109
				V34.6H62.6l-2.7,2.7h-32V94.7z M59.4,36H26.9v-8.9H110v6.2H62L59.4,36z M27.9,35h31l2.7-2.7H109v-4.2H27.9V35z" />
      </g>
    </g>
  </g>
  <g>
    <path d="M20.6,36.6h71.6v13.2h2.1V22.8H28.7h-5.6h-4.6v65h35.2v-2.1H20.6V36.6z M23.1,24.8h5.6h63.5v9.8H20.6v-9.8H23.1z
		 M34.8,29.7c0-0.9,0.8-1.7,1.7-1.7c0.9,0,1.7,0.8,1.7,1.7c0,0.9-0.8,1.7-1.7,1.7C35.6,31.4,34.8,30.6,34.8,29.7z M29.4,29.7
		c0-0.9,0.8-1.7,1.7-1.7c0.9,0,1.7,0.8,1.7,1.7c0,0.9-0.8,1.7-1.7,1.7C30.2,31.4,29.4,30.6,29.4,29.7z M24.1,29.7
		c0-0.9,0.8-1.7,1.7-1.7c0.9,0,1.7,0.8,1.7,1.7c0,0.9-0.8,1.7-1.7,1.7C24.9,31.4,24.1,30.6,24.1,29.7z M112.1,85.4V66.7H99.2v-8.5
		H80.2v8.5H68.6v18.6h-6.3V100h14.6V85.4h-6.3V68.8h9.6v8.5h8.5v8.1h-6.3V100H97V85.4h-6.3v-8.1h8.5v-8.5h10.8v16.6h-6.3V100h14.6
		V85.4H112.1z M74.9,98H64.3V87.4h10.5V98z M95,98H84.4V87.4H95V98z M97.2,75.2h-15v-15h15V75.2z M116.4,98h-10.5V87.4h10.5V98z" />
  </g>
  <g>
    <g>
      <path d="M101.9,96.7H35c-10.5,0-19-8.4-19-18.8c0-7.6,4.5-14.5,11.2-17.4c-0.3-1.2-0.4-2.6-0.4-3.9c0-10.2,8.3-18.6,18.6-18.6
			c4.8,0,9.2,1.8,12.7,5C61.4,33,70.8,26.1,81.8,26.1c13.7,0,24.9,11.2,24.9,24.9c0,2.8-0.5,5.6-1.4,8.3c8.7,1.7,15.4,9.5,15.6,18.5
			C120.9,88.2,112.4,96.7,101.9,96.7z M45.4,40.9c-8.7,0-15.9,7.1-15.9,15.9c0,1.4,0.2,3,0.6,4.3l0.3,1.2l-1.2,0.4
			c-6.2,2.2-10.6,8.5-10.6,15.3C18.7,86.8,26,94,35,94h66.9c9,0,16.3-7.3,16.3-16.3c-0.2-8.2-6.8-15.3-14.9-16.1l-1.8-0.2l0.7-1.7
			C103.4,57,104,54,104,51c0-12.3-10-22.2-22.2-22.2c-10.5,0-19.4,7.2-21.6,17.4l-0.6,2.7l-1.8-2.1C54.6,43,50.2,40.9,45.4,40.9z" />
    </g>
    <g>
      <g>
        <rect x="67" y="58" width="2.7" height="26.8" />
      </g>
      <g>
        <polygon points="68.4,86.7 55.5,73.8 57.4,71.9 68.4,82.9 79.3,71.9 81.2,73.8 			" />
      </g>
    </g>
  </g>
  <g>
    <g>
      <path d="M102.5,70.7h-17V31.5c0-0.7-0.6-1.3-1.3-1.3c-0.7,0-1.3,0.6-1.3,1.3v39.1H51.6V31.5c0-0.7-0.6-1.3-1.3-1.3
			c-0.7,0-1.3,0.6-1.3,1.3v39.1H34.6l-5.2,11.7v14.3c0,0.7,0.6,1.3,1.3,1.3h75.7c0.7,0,1.3-0.6,1.3-1.3V82.4L102.5,70.7z M36.3,73.3
			H101l2.7,6.5H33.4L36.3,73.3z M105.1,95.4H32v-13h73V95.4z" />
      <path d="M71.2,90.2h23.5c0.7,0,1.3-0.6,1.3-1.3c0-0.7-0.6-1.3-1.3-1.3H71.2c-0.7,0-1.3,0.6-1.3,1.3C69.9,89.6,70.4,90.2,71.2,90.2
			z" />
      <path d="M39.9,90.2h2.6c0.7,0,1.3-0.6,1.3-1.3c0-0.7-0.6-1.3-1.3-1.3h-2.6c-0.7,0-1.3,0.6-1.3,1.3C38.6,89.6,39.1,90.2,39.9,90.2z
			" />
      <path d="M46.4,90.2H49c0.7,0,1.3-0.6,1.3-1.3c0-0.7-0.6-1.3-1.3-1.3h-2.6c-0.7,0-1.3,0.6-1.3,1.3C45.1,89.6,45.7,90.2,46.4,90.2z" />
      <path d="M52.9,90.2h2.6c0.7,0,1.3-0.6,1.3-1.3c0-0.7-0.6-1.3-1.3-1.3h-2.6c-0.7,0-1.3,0.6-1.3,1.3C51.6,89.6,52.2,90.2,52.9,90.2z
			" />
    </g>
    <path d="M68.5,37.6c0,4-1.6,7.6-4.4,10.5c-0.6,0.6-0.6,1.4,0,2c0.3,0.3,0.7,0.4,1,0.4c0.4,0,0.7-0.1,1-0.4
		c3.4-3.4,5.2-7.8,5.2-12.5s-1.8-9.2-5.2-12.5c-0.6-0.6-1.4-0.6-2,0c-0.6,0.6-0.6,1.4,0,2C66.9,30,68.5,33.7,68.5,37.6z" />
    <path d="M62.8,37.6c0,2.4-1,4.8-2.7,6.5c-0.6,0.6-0.6,1.4,0,2c0.3,0.3,0.7,0.4,1,0.4c0.4,0,0.7-0.1,1-0.4c2.3-2.3,3.5-5.2,3.5-8.5
		c0-3.3-1.3-6.2-3.5-8.5c-0.6-0.6-1.4-0.6-2,0c-0.6,0.6-0.6,1.4,0,2C61.8,33,62.8,35.2,62.8,37.6z" />
    <path d="M56.2,42.2c0.3,0.3,0.7,0.4,1,0.4c0.4,0,0.7-0.1,1-0.4c1.3-1.3,1.8-2.8,1.8-4.5s-0.7-3.3-1.8-4.5c-0.6-0.6-1.4-0.6-2,0
		c-0.6,0.6-0.6,1.4,0,2c0.7,0.7,1,1.6,1,2.5s-0.4,1.8-1,2.5C55.6,40.8,55.6,41.6,56.2,42.2z" />
    <path d="M35.5,50.7c0.4,0,0.7-0.1,1-0.4c0.6-0.6,0.6-1.4,0-2c-2.8-2.8-4.4-6.5-4.4-10.5s1.6-7.6,4.4-10.5c0.6-0.6,0.6-1.4,0-2
		c-0.6-0.6-1.4-0.6-2,0c-3.4,3.4-5.2,7.8-5.2,12.5s1.8,9.2,5.2,12.5C34.6,50.5,35.1,50.7,35.5,50.7z" />
    <path d="M38.5,46.1c0.3,0.3,0.7,0.4,1,0.4c0.4,0,0.7-0.1,1-0.4c0.6-0.6,0.6-1.4,0-2c-1.7-1.7-2.7-4.1-2.7-6.5c0-2.4,1-4.8,2.7-6.5
		c0.6-0.6,0.6-1.4,0-2c-0.6-0.6-1.4-0.6-2,0c-2.3,2.3-3.5,5.2-3.5,8.5S36.2,43.9,38.5,46.1z" />
    <path d="M42.4,42.2c0.3,0.3,0.7,0.4,1,0.4c0.4,0,0.7-0.1,1-0.4c0.6-0.6,0.6-1.4,0-2c-1.4-1.4-1.4-3.7,0-5c0.6-0.6,0.6-1.4,0-2
		c-0.6-0.6-1.4-0.6-2,0C40,35.7,40,39.8,42.4,42.2z" />
  </g>
  <g>
    <g>
      <g>
        <g>
          <path d="M30.9,63v0.1V64l-4.4-4.7l-1.9,1.6l7.1,7.8l8.1-6.7l-1.6-1.9l-5,4.2v-1.1c0.8-12,7.7-22.6,18.3-28.3l-1.2-2.2
					C39,38.9,31.7,50.2,30.9,63z" />
        </g>
        <g>
          <path d="M78.3,92l6.1,2.4l-0.9,0.4c-9.8,4.4-20.7,4.2-30.3-0.7c-0.1,0.4-0.5,1.5-0.7,2.4c10.1,5,21.7,5.2,32,0.5
					c0.1,0,0.1,0,0.1-0.1l0.7-0.3l-2.2,6.1l2.3,0.8l3.5-10l-9.8-3.9L78.3,92z" />
        </g>
        <g>
          <path d="M88.9,33.8l-0.1-0.1l-0.7-0.5l6.3-1.1L94,29.7l-10.4,1.6l1.2,10.5l2.4-0.3L86.5,35l0.8,0.7c8.7,6.6,13.9,16.7,13.9,27.7
					h2.4C103.7,51.7,98.3,41,88.9,33.8z" />
        </g>
      </g>
    </g>
    <g>
      <g>
        <g>
          <path d="M67.9,31.4c-3.3,0-5.9-2.7-5.9-5.9s2.7-5.9,5.9-5.9s5.9,2.7,5.9,5.9S71.2,31.4,67.9,31.4z M67.9,20.8
					c-2.5,0-4.6,2.1-4.6,4.6c0,2.5,2.1,4.6,4.6,4.6c2.5,0,4.6-2.1,4.6-4.6C72.5,22.9,70.4,20.8,67.9,20.8z" />
          <path d="M67.9,31.6c-3.4,0-6.2-2.8-6.2-6.2c0-3.4,2.8-6.2,6.2-6.2c3.4,0,6.2,2.8,6.2,6.2C74.1,28.8,71.3,31.6,67.9,31.6z
					 M67.9,19.7c-3.2,0-5.7,2.6-5.7,5.7c0,3.2,2.6,5.7,5.7,5.7c3.2,0,5.7-2.6,5.7-5.7C73.6,22.3,71.1,19.7,67.9,19.7z M67.9,30.2
					c-2.7,0-4.8-2.2-4.8-4.8c0-2.7,2.2-4.8,4.8-4.8c2.7,0,4.8,2.2,4.8,4.8C72.7,28.1,70.6,30.2,67.9,30.2z M67.9,21
					c-2.4,0-4.4,2-4.4,4.4c0,2.4,2,4.4,4.4,4.4c2.4,0,4.4-2,4.4-4.4C72.3,23,70.3,21,67.9,21z" />
        </g>
      </g>
      <g>
        <g>
          <path d="M77.6,43.6H58.2L58.1,43c0-0.3-0.5-6.4,3-10.2c1.7-1.9,4.1-2.8,7-2.8c2.9,0,5.2,0.9,6.9,2.8c3.4,3.8,2.7,9.9,2.7,10.2
					L77.6,43.6z M59.4,42.2h16.9c0.1-1.6,0-5.9-2.4-8.5c-1.4-1.5-3.4-2.3-5.9-2.3c-2.5,0-4.5,0.8-6,2.4
					C59.6,36.4,59.4,40.7,59.4,42.2z" />
          <path d="M77.8,43.8H58L57.9,43c0-0.3-0.5-6.5,3-10.3c1.7-1.9,4.2-2.9,7.1-2.9c3,0,5.4,1,7.1,2.9c3.4,3.8,2.8,10.1,2.7,10.4
					L77.8,43.8z M58.4,43.4h19l0-0.4c0-0.3,0.7-6.3-2.6-10c-1.6-1.8-3.9-2.7-6.7-2.7c-2.9,0-5.2,0.9-6.8,2.7
					c-3.4,3.7-2.9,9.7-2.9,10L58.4,43.4z M76.6,42.5H59.2l0-0.2c0-1.7,0.2-6,2.7-8.7c1.5-1.6,3.6-2.4,6.1-2.4c2.6,0,4.6,0.8,6.1,2.4
					c2.4,2.7,2.5,7,2.5,8.7L76.6,42.5z M59.7,42h16.5c0.1-1.8-0.1-5.7-2.3-8.2c-1.3-1.5-3.3-2.3-5.7-2.3c-2.5,0-4.4,0.8-5.8,2.3
					C60,36.4,59.7,40.2,59.7,42z" />
        </g>
      </g>
    </g>
    <g>
      <g>
        <g>
          <path d="M35.9,83.4c-3.3,0-5.9-2.7-5.9-5.9s2.7-5.9,5.9-5.9s5.9,2.7,5.9,5.9S39.2,83.4,35.9,83.4z M35.9,72.9
					c-2.5,0-4.6,2.1-4.6,4.6c0,2.5,2.1,4.6,4.6,4.6c2.5,0,4.6-2.1,4.6-4.6C40.5,74.9,38.4,72.9,35.9,72.9z" />
          <path d="M35.9,83.6c-3.4,0-6.2-2.8-6.2-6.2c0-3.4,2.8-6.2,6.2-6.2c3.4,0,6.2,2.8,6.2,6.2C42.1,80.9,39.3,83.6,35.9,83.6z
					 M35.9,71.7c-3.2,0-5.7,2.6-5.7,5.7c0,3.2,2.6,5.7,5.7,5.7c3.2,0,5.7-2.6,5.7-5.7C41.6,74.3,39,71.7,35.9,71.7z M35.9,82.3
					c-2.7,0-4.8-2.2-4.8-4.8c0-2.7,2.2-4.8,4.8-4.8c2.7,0,4.8,2.2,4.8,4.8C40.7,80.1,38.6,82.3,35.9,82.3z M35.9,73.1
					c-2.4,0-4.4,2-4.4,4.4c0,2.4,2,4.4,4.4,4.4c2.4,0,4.4-2,4.4-4.4C40.3,75,38.3,73.1,35.9,73.1z" />
        </g>
      </g>
      <g>
        <g>
          <path d="M45.6,95.6H26.2L26.1,95c0-0.3-0.5-6.4,3-10.2c1.7-1.9,4.1-2.8,7-2.8c2.9,0,5.2,0.9,6.9,2.8c3.4,3.8,2.7,9.9,2.7,10.2
					L45.6,95.6z M27.4,94.3h16.9c0.1-1.6,0-5.9-2.4-8.5c-1.4-1.5-3.4-2.3-5.9-2.3c-2.5,0-4.5,0.8-6,2.4
					C27.6,88.4,27.4,92.7,27.4,94.3z" />
          <path d="M45.8,95.8H26L25.9,95c0-0.3-0.5-6.5,3-10.3c1.7-1.9,4.2-2.9,7.1-2.9c3,0,5.4,1,7.1,2.9c3.4,3.8,2.8,10.1,2.7,10.4
					L45.8,95.8z M26.4,95.4h19l0-0.4c0-0.3,0.7-6.3-2.6-10c-1.6-1.8-3.9-2.7-6.7-2.7c-2.9,0-5.2,0.9-6.8,2.7
					c-3.4,3.7-2.9,9.7-2.9,10L26.4,95.4z M44.6,94.5H27.2l0-0.2c0-1.7,0.2-6,2.7-8.7c1.5-1.6,3.6-2.4,6.1-2.4c2.6,0,4.6,0.8,6.1,2.4
					c2.4,2.7,2.5,7,2.5,8.7L44.6,94.5z M27.6,94.1h16.5c0.1-1.8-0.1-5.7-2.3-8.2c-1.3-1.5-3.3-2.3-5.7-2.3c-2.5,0-4.4,0.8-5.8,2.3
					C27.9,88.4,27.7,92.3,27.6,94.1z" />
        </g>
      </g>
    </g>
    <g>
      <g>
        <g>
          <path d="M102.3,83.4c-3.3,0-5.9-2.7-5.9-5.9s2.7-5.9,5.9-5.9c3.3,0,5.9,2.7,5.9,5.9S105.6,83.4,102.3,83.4z M102.3,72.9
					c-2.5,0-4.6,2.1-4.6,4.6c0,2.5,2.1,4.6,4.6,4.6c2.5,0,4.6-2.1,4.6-4.6C106.9,74.9,104.9,72.9,102.3,72.9z" />
          <path d="M102.3,83.6c-3.4,0-6.2-2.8-6.2-6.2c0-3.4,2.8-6.2,6.2-6.2c3.4,0,6.2,2.8,6.2,6.2C108.5,80.9,105.7,83.6,102.3,83.6z
					 M102.3,71.7c-3.2,0-5.7,2.6-5.7,5.7c0,3.2,2.6,5.7,5.7,5.7c3.2,0,5.7-2.6,5.7-5.7C108,74.3,105.5,71.7,102.3,71.7z M102.3,82.3
					c-2.7,0-4.8-2.2-4.8-4.8c0-2.7,2.2-4.8,4.8-4.8c2.7,0,4.8,2.2,4.8,4.8C107.1,80.1,105,82.3,102.3,82.3z M102.3,73.1
					c-2.4,0-4.4,2-4.4,4.4c0,2.4,2,4.4,4.4,4.4c2.4,0,4.4-2,4.4-4.4C106.7,75,104.7,73.1,102.3,73.1z" />
        </g>
      </g>
      <g>
        <g>
          <path d="M112,95.6H92.6L92.5,95c0-0.3-0.5-6.4,3-10.2c1.7-1.9,4.1-2.8,7-2.8c2.9,0,5.2,0.9,6.9,2.8c3.4,3.8,2.7,9.9,2.7,10.2
					L112,95.6z M93.8,94.3h16.9c0.1-1.6,0-5.9-2.4-8.5c-1.4-1.5-3.4-2.3-5.9-2.3c-2.5,0-4.5,0.8-6,2.4C94,88.4,93.8,92.7,93.8,94.3z
					" />
          <path d="M112.2,95.8H92.4L92.3,95c0-0.3-0.5-6.5,3-10.3c1.7-1.9,4.2-2.9,7.1-2.9s5.4,1,7.1,2.9c3.4,3.8,2.8,10.1,2.7,10.4
					L112.2,95.8z M92.8,95.4h19l0-0.4c0-0.3,0.7-6.3-2.6-10c-1.6-1.8-3.9-2.7-6.7-2.7c-2.9,0-5.2,0.9-6.8,2.7
					c-3.4,3.7-2.9,9.7-2.9,10L92.8,95.4z M111,94.5H93.6l0-0.2c0-1.7,0.2-6,2.7-8.7c1.5-1.6,3.6-2.4,6.1-2.4c2.6,0,4.6,0.8,6.1,2.4
					c2.4,2.7,2.5,7,2.5,8.7L111,94.5z M94.1,94.1h16.5c0.1-1.8-0.1-5.7-2.3-8.2c-1.3-1.5-3.3-2.3-5.7-2.3c-2.5,0-4.4,0.8-5.8,2.3
					C94.4,88.4,94.1,92.3,94.1,94.1z" />
        </g>
      </g>
    </g>
    <g>
      <g>
        <path d="M67.9,50.7c-5.5,0-9.9,4.5-9.9,10c0,3.3,0.9,4.9,1.8,6.3c0.9,1.4,1.7,2.7,1.7,5.5v0.2l0,0l1.5,8c0.1,0.7,0.8,1.1,1.5,1.1
				h0.1V82c0,0.8,0.6,1.6,1.4,1.6h3.6c0.8,0,1.4-0.8,1.4-1.6v-0.2h0.1c0.7,0,1.4-0.4,1.5-1.1l1.5-8c0,0,0-0.1,0-0.1v-0.1
				c0-2.8,0.8-4,1.7-5.5c0.9-1.4,1.8-3.1,1.8-6.3C77.8,55.2,73.3,50.7,67.9,50.7z M70.3,82c0,0.5-0.3,0.8-0.6,0.8h-3.6
				c-0.3,0-0.6-0.3-0.6-0.8v-0.2h4.7V82z M71.9,80.5c0,0.2-0.4,0.4-0.7,0.4h-6.6c-0.4,0-0.7-0.3-0.7-0.4L62.4,73h10.9L71.9,80.5z
				 M75.3,66.6c-0.8,1.4-1.7,2.8-1.8,5.6h-5.1v-8c0.1-0.1,2-0.5,2.1-2.3c0.1-1.4-1.1-2.5-2.6-2.5c-1.4,0-2.7,1.1-2.6,2.5
				c0.2,1.8,1.7,2.3,2,2.5c0.2-0.2,0.6-0.8,0.5-0.8c-1.2-0.2-1.7-1.2-1.7-1.7c0-1,0.8-1.7,1.8-1.7c1,0,1.8,0.8,1.8,1.7
				c0,1.3-1.8,1.7-1.9,1.7c-0.1,0.1-0.2,0.2-0.2,0.4v8.2h-0.2h-0.8h-4.3c-0.1-2.7-0.9-4.2-1.8-5.6c-0.9-1.4-1.7-2.8-1.7-5.9
				c0-5,4.1-9.1,9.1-9.1c5,0,9.1,4.1,9.1,9.1C76.9,63.8,76.1,65.2,75.3,66.6z" />
        <path d="M69.7,83.9h-3.6c-0.9,0-1.7-0.8-1.7-1.8c-0.8-0.1-1.5-0.6-1.6-1.4l-1.6-8.2c0-2.6-0.7-3.8-1.6-5.1l-0.1-0.2
				c-0.8-1.3-1.8-3-1.8-6.5c0-5.7,4.6-10.3,10.2-10.3c2.7,0,5.3,1.1,7.2,3c1.9,2,3,4.5,3,7.3c0,3.4-1,5.1-1.9,6.5l-0.1,0.2
				c-0.8,1.4-1.5,2.5-1.5,5.1v0.1c0,0,0,0.1,0,0.2l-1.5,8c-0.1,0.7-0.8,1.3-1.6,1.4C71.4,83.1,70.6,83.9,69.7,83.9z M61.9,72.6
				L61.9,72.6l1.6,8c0.1,0.5,0.7,0.8,1.2,0.8h0.5V82c0,0.6,0.4,1.2,1,1.2h3.6c0.6,0,1-0.6,1-1.2v-0.6h0.5c0.5,0,1.1-0.3,1.2-0.8
				l1.6-8.1l0,0c0-2.8,0.8-4.1,1.6-5.5l0.1-0.2c0.8-1.4,1.8-2.9,1.8-6.1c0-2.6-1-5-2.8-6.8s-4.2-2.8-6.7-2.8c-5.2,0-9.5,4.3-9.5,9.6
				c0,3.3,1,4.9,1.7,6.1l0.1,0.2C61.1,68.4,61.9,69.7,61.9,72.6L61.9,72.6z M69.7,83.1h-3.6c-0.4,0-0.9-0.4-0.9-1.1v-0.6h5.4V82
				C70.6,82.7,70.1,83.1,69.7,83.1z M65.9,82.1c0,0.2,0.1,0.3,0.2,0.3h3.6c0,0,0.1-0.1,0.2-0.3H65.9z M71.2,81.3h-6.6
				c-0.5,0-1-0.4-1.1-0.7L62,72.6h11.8l-1.5,8C72.2,80.9,71.7,81.3,71.2,81.3z M62.9,73.3l1.4,7.1c0,0,0.2,0.1,0.4,0.1h6.6
				c0.2,0,0.3-0.1,0.4-0.2l1.4-7.1H62.9z M73.8,72.5H68v-8.4c0,0,0,0.1-0.1,0.1l0,8.3h-6l0-0.3c-0.1-2.7-1-4.1-1.7-5.4
				c-0.9-1.4-1.7-2.9-1.7-6.1c0-2.5,1-4.9,2.8-6.7c1.8-1.8,4.1-2.8,6.7-2.8c5.2,0,9.4,4.3,9.4,9.5c0,3.2-0.9,4.7-1.7,6.1
				c-0.8,1.3-1.6,2.7-1.7,5.4L73.8,72.5z M68.7,71.8h4.4c0.2-2.7,1.1-4.2,1.8-5.4l0.3,0.2L75,66.4c0.8-1.4,1.6-2.7,1.6-5.7
				c0-4.8-3.9-8.8-8.7-8.8c-2.3,0-4.5,0.9-6.1,2.6c-1.6,1.7-2.5,3.9-2.5,6.2c0,3,0.8,4.3,1.6,5.7c0.7,1.2,1.7,2.7,1.8,5.4h4.6v-7.1
				l-0.1-0.1c-0.1,0-0.1-0.1-0.2-0.1c-0.6-0.3-1.8-0.9-2-2.7c-0.1-0.7,0.2-1.4,0.7-1.9c0.6-0.6,1.4-1,2.3-1c0.8,0,1.7,0.3,2.2,0.9
				c0.5,0.5,0.8,1.2,0.7,2c-0.1,1.2-0.8,2-2.1,2.5V71.8z M67.9,59.7c-0.7,0-1.3,0.3-1.8,0.8c-0.3,0.3-0.5,0.7-0.5,1.4
				c0.1,1.3,1,1.8,1.6,2.1c0,0,0-0.1,0-0.1c-1-0.4-1.5-1.4-1.5-1.9c0-1.2,0.9-2.1,2.1-2.1c0.6,0,1.1,0.2,1.6,0.7
				c0.4,0.4,0.6,0.9,0.6,1.4c0,0.6-0.4,1.2-1,1.6c0.5-0.3,1-0.8,1.1-1.6c0-0.5-0.2-1.1-0.5-1.5C69.2,59.9,68.6,59.7,67.9,59.7z
				 M67.8,63.2L67.8,63.2c0.4,0,1.5-0.4,1.5-1.3c0-0.3-0.1-0.6-0.4-0.9c-0.3-0.3-0.7-0.4-1-0.4c-0.8,0-1.4,0.6-1.4,1.4
				C66.5,62.1,66.9,63,67.8,63.2L67.8,63.2z" />
      </g>
    </g>
  </g>
</svg>
