<svg id="usabit-logo" xmlns="http://www.w3.org/2000/svg" viewBox="0 0 3401.57 1070.69"><path d="M610.62 1054H451.69V946.61h-2.79q-23.72 50.19-72.49 87.13T244 1070.69q-66.92 0-113.62-21.61t-76-58.55q-29.29-36.93-41.83-84.35A385.09 385.09 0 0 1 0 807.2V384.78h167.29v338.77q0 27.91 2.79 62a222.13 222.13 0 0 0 14.64 64.13A122.2 122.2 0 0 0 221 899.9q24.38 20.23 69 20.22 41.83 0 70.4-13.94a135.18 135.18 0 0 0 47.4-37.64 149.61 149.61 0 0 0 27.2-54.38 242.55 242.55 0 0 0 8.33-64.16V384.78h167.29V1054zM1073.46 570.2q-48.82-68.29-131-68.31-33.46 0-65.52 16.73T844.82 573q0 30.68 26.49 44.62t66.92 23.7q40.42 9.77 87.13 20.21a343.32 343.32 0 0 1 87.14 32.07 190.9 190.9 0 0 1 66.92 59.25q26.46 37.64 26.49 103.17 0 60-25.79 101.07a202.73 202.73 0 0 1-66.92 66.22q-41.13 25.1-92.71 36.25a487.52 487.52 0 0 1-103.16 11.15q-78.1 0-143.59-22.31t-117.13-80.88L768.14 863q32 36.27 69 59.25t89.92 23a179.7 179.7 0 0 0 37.65-4.25 122.2 122.2 0 0 0 36.29-13.91 86.09 86.09 0 0 0 27.19-24.4q10.46-14.64 10.45-34.15 0-34.83-26.49-51.58t-66.92-27.19q-40.45-10.45-87.13-19.51A336.9 336.9 0 0 1 770.93 741 182.61 182.61 0 0 1 704 684.52q-26.5-36.24-26.49-100.38 0-55.75 23-96.9a202.34 202.34 0 0 1 60.65-67.61q37.64-26.47 86.44-39a396 396 0 0 1 99-12.55q66.92 0 132.44 23t106 78.77zM1698 961.94h-4.18q-36.27 57.18-92 83t-122.68 25.79a325.83 325.83 0 0 1-89.92-12.55q-43.91-12.55-78.07-37.64a193.21 193.21 0 0 1-55.07-62.74q-20.91-37.64-20.91-87.83 0-54.37 19.52-92.71a190.52 190.52 0 0 1 52.28-64.13q32.74-25.78 76-41.12a521 521 0 0 1 89.92-23 801.19 801.19 0 0 1 94.1-9.76q47.38-2.09 89.22-2.09H1698V619q0-62.74-43.22-94.11t-110.14-31.36q-53 0-99 18.82t-79.46 50.89l-87.83-87.83q55.74-57.14 130.35-82.25A479.76 479.76 0 0 1 1562.77 368q71.1 0 119.89 16t80.86 41.12q32.05 25.1 49.5 57.86a269.38 269.38 0 0 1 25.09 66.22 364.59 364.59 0 0 1 9.06 64.83q1.36 31.38 1.39 55.07V1054H1698v-92zm-9.76-207.72h-34.85q-34.86 0-78.07 2.79a409.86 409.86 0 0 0-81.56 13.25q-38.36 10.45-64.83 30.67t-26.49 56.46q0 23.72 10.46 39.73a94.5 94.5 0 0 0 27.18 27.18 113.21 113.21 0 0 0 37.64 16 182.5 182.5 0 0 0 41.82 4.88q86.43 0 127.56-41.13t41.12-112.23v-37.6zM1916.86 0s167.3 46.16 167.3 207v262.82h4.18q12.54-16.73 32.06-34.16t47.4-32.76q27.87-15.33 64.13-25.09t83.65-9.76q71.1 0 131 27.19t102.47 74.58q42.51 47.41 66.22 111.53t23.7 138q0 73.91-22.31 138t-65.52 111.53q-43.23 47.41-104.56 74.58t-138 27.19q-71.1 0-132.44-27.88t-97.59-89.22h-2.78V1054h-158.91V0zm554.86 719.37a217.93 217.93 0 0 0-13.25-75.28 189.44 189.44 0 0 0-39-64.13 194.86 194.86 0 0 0-62-44.62q-36.27-16.73-82.25-16.72t-82.26 16.72a194.48 194.48 0 0 0-62 44.62 188.81 188.81 0 0 0-39 64.13 220.58 220.58 0 0 0 0 150.56 188.41 188.41 0 0 0 39 64.13 194 194 0 0 0 62 44.61q36.24 16.73 82.26 16.73t82.25-16.73a194.41 194.41 0 0 0 62-44.61 189 189 0 0 0 39-64.13 217.76 217.76 0 0 0 13.25-75.28zM2662.69 157.54q0-40.42 30-70.41t76-30q46 0 77.37 28.57t31.37 71.8q0 43.23-31.37 71.8t-77.37 28.58q-46 0-76-30t-30-70.34zm23.7 227.24h167.3V1054h-167.3V384.78zM2912.24 527V384.78h138V191h167.29v193.78h184V527h-184v292.74q0 50.18 18.82 79.46t74.65 29.28a269.42 269.42 0 0 0 48.79-4.88q26.47-4.86 41.83-16v140.8q-26.5 12.55-64.83 17.43t-67.62 4.88q-66.91 0-109.44-14.64t-66.92-44.62q-24.41-30-33.46-74.59t-9.06-103.16V527h-138z"/></svg>