<?xml version="1.0" standalone="no"?>
<!DOCTYPE svg PUBLIC "-//W3C//DTD SVG 20010904//EN"
 "http://www.w3.org/TR/2001/REC-SVG-20010904/DTD/svg10.dtd">
<svg version="1.0" xmlns="http://www.w3.org/2000/svg"
 width="16.000000pt" height="16.000000pt" viewBox="0 0 16.000000 16.000000"
 preserveAspectRatio="xMidYMid meet">
<metadata>
Created by potrace 1.11, written by Peter Selinger 2001-2013
</metadata>
<g transform="translate(0.000000,16.000000) scale(0.006154,-0.006154)"
fill="#000000" stroke="none">
<path d="M777 2093 c-1 -1 -69 -3 -150 -4 -122 -2 -150 -6 -156 -18 -5 -9 -30
-84 -55 -168 l-47 -152 4 -338 c2 -186 7 -351 10 -368 93 -388 268 -606 578
-720 246 -91 629 -61 847 66 79 47 230 200 282 287 51 88 92 191 117 297 16
72 18 133 19 585 0 278 -1 510 -3 515 -3 8 -632 14 -691 7 -9 -2 -12 -77 -12
-346 1 -368 0 -376 -51 -448 -65 -91 -255 -89 -328 4 -38 48 -43 79 -47 313
-2 127 -6 289 -8 360 l-3 130 -152 0 c-84 0 -153 -1 -154 -2z"/>
</g>
</svg>
